<svg width="12" height="8" viewBox="0 0 12 8" fill="none" xmlns="http://www.w3.org/2000/svg">
<path d="M0.136505 0.929027C0.319546 0.745987 0.614272 0.745987 0.79421 0.929027L6 6.13482L11.2058 0.929028C11.3888 0.745988 11.6836 0.745988 11.8635 0.929028C11.9535 1.019 12 1.13999 12 1.25788C12 1.37577 11.9535 1.49676 11.8635 1.58673L6.37849 7.07174C6.28852 7.1617 6.16753 7.20824 6.04964 7.20824C6.03413 7.20824 6.01551 7.19893 6 7.19893C5.98449 7.20203 5.96587 7.20824 5.95036 7.20824C5.83247 7.20824 5.71148 7.1617 5.62151 7.07174L0.136505 1.58673C0.0465364 1.49676 9.02617e-07 1.37577 9.12924e-07 1.25788C9.2323e-07 1.13999 0.0465364 1.019 0.136505 0.929027Z" fill="white"/>
</svg>
