<svg width="12" height="13" viewBox="0 0 12 13" fill="none" xmlns="http://www.w3.org/2000/svg">
<g clip-path="url(#clip0_203_10054)">
<path d="M6.42835 6.49966L11.9086 1.01942C12.0271 0.900877 12.0271 0.709388 11.9086 0.590847C11.7901 0.472306 11.5986 0.472306 11.48 0.590847L5.99978 6.06805L0.51954 0.587807C0.400999 0.469266 0.20951 0.469266 0.0909687 0.587807C-0.0275723 0.706348 -0.0275723 0.897838 0.0909687 1.01638L5.57121 6.49662L0.0879292 11.9799C-0.0306118 12.0984 -0.0306118 12.2899 0.0879292 12.4085C0.20647 12.527 0.39796 12.527 0.516501 12.4085L5.99674 6.92823L11.477 12.4085C11.5955 12.527 11.787 12.527 11.9056 12.4085C12.0241 12.2899 12.0241 12.0984 11.9056 11.9799L6.42835 6.49966Z" fill="#F82C47"/>
</g>
<defs>
<clipPath id="clip0_203_10054">
<rect width="12" height="12" fill="white" transform="translate(0 0.5)"/>
</clipPath>
</defs>
</svg>
