<svg width="193" height="48" viewBox="0 0 193 48" fill="none" xmlns="http://www.w3.org/2000/svg">
<rect width="193" height="48" rx="5" fill="#003E98"/>
<g clip-path="url(#clip0_216_411)">
<path d="M41 24C41 27.1645 40.0616 30.2579 38.3035 32.8891C36.5454 35.5203 34.0465 37.5711 31.1229 38.7821C28.1993 39.9931 24.9823 40.3099 21.8786 39.6926C18.7749 39.0752 15.9239 37.5513 13.6863 35.3137C11.4487 33.0761 9.92481 30.2251 9.30744 27.1214C8.69008 24.0177 9.00693 20.8007 10.2179 17.8771C11.4289 14.9534 13.4797 12.4546 16.1109 10.6965C18.7421 8.93838 21.8355 8 25 8C25.0736 8 25.1536 8 25.224 8C27.4631 8.02421 29.6712 8.52606 31.7008 9.472C34.4784 10.75 36.831 12.7981 38.4793 15.3733C40.1277 17.9484 41.0025 20.9425 41 24Z" fill="white"/>
<path d="M21.6274 25.1232V24.5248C20.6674 24.6624 19.9634 24.5248 19.7074 24.1024L18.1074 25.0176C18.549 25.6 19.8898 25.6 21.6274 25.1232Z" fill="url(#paint0_linear_216_411)"/>
<path d="M19.6975 24.096C19.3327 23.456 20.1071 22.2656 21.5407 21.104L21.5759 22.704L21.6143 24.5312V25.1296L21.6399 26.4096L21.6719 27.7696L31.9599 21.9552L30.5999 21.2064L29.5887 20.6464L29.0319 20.3264L27.7103 19.5968L25.9375 18.6176C27.6751 18 29.0959 17.9264 29.5343 18.5184L31.1887 17.6C30.6479 16.64 28.1679 16.96 25.2655 18.24L21.4255 16.128L21.4927 19.2384C22.3603 18.9953 23.2501 18.8399 24.1487 18.7744C23.9119 18.896 23.6719 19.0208 23.4319 19.1552C22.7567 19.5296 22.1231 19.9232 21.5407 20.3264C19.0095 22.08 17.5055 23.9552 18.0207 24.8992C18.0412 24.9363 18.0647 24.9716 18.0911 25.0048L19.6911 24.0896L19.6975 24.096Z" fill="url(#paint1_linear_216_411)"/>
<path d="M21.6143 24.5248L21.6271 25.1232L21.6175 24.5248H21.6143Z" fill="url(#paint2_linear_216_411)"/>
<path d="M21.6143 24.5248L21.6271 25.1232L21.6175 24.5248H21.6143Z" fill="url(#paint3_linear_216_411)"/>
<path d="M29.5888 18.6048C29.8192 19.0208 29.5888 19.6416 29.0352 20.3392L29.592 20.6592C30.8976 19.4304 31.5472 18.2944 31.192 17.6256L29.5568 18.5504L29.5888 18.6048Z" fill="url(#paint4_linear_216_411)"/>
<path d="M24.0625 29.0368C24.0617 29.0289 24.058 29.0215 24.0521 29.0162C24.0462 29.0109 24.0385 29.008 24.0305 29.008H23.6657C23.6617 29.0075 23.6576 29.0079 23.6537 29.0092C23.6499 29.0104 23.6463 29.0125 23.6433 29.0152C23.6402 29.0179 23.6378 29.0213 23.6362 29.025C23.6345 29.0287 23.6337 29.0327 23.6337 29.0368V29.76V30.368C23.6245 30.4741 23.5758 30.5729 23.4973 30.6448C23.4189 30.7168 23.3162 30.7567 23.2097 30.7567C23.1032 30.7567 23.0006 30.7168 22.9221 30.6448C22.8436 30.5729 22.795 30.4741 22.7857 30.368V29.04C22.7857 29.0324 22.7827 29.025 22.7773 29.0196C22.7719 29.0142 22.7646 29.0112 22.7569 29.0112H22.3889C22.3849 29.0107 22.3808 29.0111 22.3769 29.0124C22.3731 29.0136 22.3695 29.0157 22.3665 29.0184C22.3634 29.0211 22.361 29.0245 22.3594 29.0282C22.3577 29.0319 22.3569 29.0359 22.3569 29.04V30.3488C22.358 30.4922 22.3919 30.6334 22.4561 30.7616C22.518 30.8825 22.6142 30.9825 22.7325 31.0491C22.8509 31.1156 22.9863 31.1459 23.1217 31.136C23.2211 31.1381 23.3199 31.1202 23.4123 31.0833C23.5046 31.0465 23.5886 30.9915 23.6593 30.9216V31.0688C23.6593 31.0764 23.6624 31.0838 23.6678 31.0892C23.6732 31.0946 23.6805 31.0976 23.6881 31.0976H24.0305C24.0385 31.0968 24.0458 31.0931 24.0511 31.0872C24.0564 31.0812 24.0594 31.0736 24.0593 31.0656L24.0625 29.0368Z" fill="#945226"/>
<path d="M20.2095 30.6848L19.8895 30.5216C19.8856 30.5194 19.8812 30.5182 19.8767 30.5182C19.8722 30.5182 19.8678 30.5194 19.8639 30.5216C19.8308 30.5933 19.7766 30.6532 19.7086 30.6933C19.6405 30.7333 19.5618 30.7516 19.4831 30.7456C19.4278 30.7528 19.3717 30.7484 19.3183 30.7327C19.2648 30.7171 19.2151 30.6905 19.1725 30.6548C19.1298 30.619 19.0949 30.5748 19.0702 30.5249C19.0455 30.4749 19.0313 30.4205 19.0287 30.3648V29.7248C19.0295 29.6705 19.0412 29.6168 19.0633 29.5672C19.0853 29.5175 19.1171 29.4727 19.1569 29.4357C19.1966 29.3986 19.2435 29.37 19.2946 29.3515C19.3457 29.333 19.4 29.325 19.4543 29.328C19.5342 29.3224 19.6139 29.3415 19.6826 29.3827C19.7513 29.4239 19.8056 29.4853 19.8383 29.5584C19.8402 29.5638 19.8436 29.5685 19.8482 29.5719C19.8527 29.5753 19.8582 29.5773 19.8639 29.5776H19.8799L20.1999 29.408C20.2021 29.4041 20.2033 29.3997 20.2033 29.3952C20.2033 29.3907 20.2021 29.3863 20.1999 29.3824L20.1807 29.3472C20.1047 29.222 19.9952 29.1206 19.8646 29.0544C19.7339 28.9882 19.5874 28.96 19.4415 28.9728C19.297 28.9609 19.1519 28.9892 19.0226 29.0548C18.8932 29.1203 18.7845 29.2204 18.7087 29.344C18.6381 29.4704 18.5996 29.6121 18.5967 29.7568V30.3488C18.5996 30.4935 18.6381 30.6353 18.7087 30.7616C18.7846 30.8868 18.8941 30.9883 19.0248 31.0545C19.1554 31.1206 19.302 31.1489 19.4479 31.136C19.5939 31.1496 19.7407 31.1217 19.8715 31.0555C20.0023 30.9892 20.1117 30.8874 20.1871 30.7616L20.2063 30.7232C20.2109 30.718 20.2137 30.7115 20.2143 30.7046C20.2149 30.6976 20.2132 30.6907 20.2095 30.6848Z" fill="#945226"/>
<path d="M21.2689 28.9696C21.1231 28.9571 20.9766 28.9855 20.846 29.0517C20.7155 29.1178 20.6059 29.219 20.5297 29.344C20.4595 29.4703 20.4221 29.6123 20.4209 29.7568V30.3488C20.4222 30.4943 20.4596 30.6373 20.5297 30.7648C20.6066 30.8889 20.7164 30.9893 20.8469 31.0548C20.9773 31.1203 21.1234 31.1484 21.2689 31.136C21.4144 31.1484 21.5605 31.1203 21.6909 31.0548C21.8214 30.9893 21.9312 30.8889 22.0081 30.7648C22.0785 30.6374 22.1159 30.4944 22.1169 30.3488V29.76C22.1159 29.6144 22.0785 29.4714 22.0081 29.344C21.9311 29.2198 21.8214 29.1192 21.691 29.0532C21.5606 28.9871 21.4146 28.9582 21.2689 28.9696ZM21.6881 30.3648C21.6789 30.4709 21.6302 30.5697 21.5517 30.6416C21.4732 30.7136 21.3706 30.7535 21.2641 30.7535C21.1576 30.7535 21.055 30.7136 20.9765 30.6416C20.898 30.5697 20.8493 30.4709 20.8401 30.3648V29.7248C20.8493 29.6187 20.898 29.5199 20.9765 29.448C21.055 29.376 21.1576 29.3361 21.2641 29.3361C21.3706 29.3361 21.4732 29.376 21.5517 29.448C21.6302 29.5199 21.6789 29.6187 21.6881 29.7248V30.3648Z" fill="#945226"/>
<path fill-rule="evenodd" clip-rule="evenodd" d="M27.4479 29.0336C27.107 28.9424 26.7448 28.9729 26.4239 29.12C26.4177 29.1219 26.4122 29.1257 26.4082 29.1309C26.4042 29.136 26.4019 29.1423 26.4015 29.1488L26.5039 29.4432C26.5068 29.4506 26.5123 29.4566 26.5194 29.4602C26.5265 29.4637 26.5347 29.4645 26.5423 29.4624C26.7742 29.3399 27.0429 29.3068 27.2975 29.3696C27.3658 29.403 27.4222 29.4565 27.4594 29.5228C27.4966 29.5891 27.5126 29.6651 27.5055 29.7408V29.7984C27.3665 29.6961 27.1982 29.6411 27.0255 29.6416C26.8922 29.6314 26.7588 29.659 26.6404 29.7213C26.5221 29.7835 26.4238 29.8779 26.3567 29.9936C26.2944 30.1155 26.2616 30.2503 26.2607 30.3872C26.2616 30.5241 26.2944 30.6589 26.3567 30.7808C26.4244 30.8959 26.5228 30.9899 26.641 31.0521C26.7591 31.1143 26.8923 31.1422 27.0255 31.1328C27.2043 31.1336 27.378 31.0738 27.5183 30.9632V31.0624C27.519 31.0698 27.5223 31.0767 27.5276 31.082C27.5328 31.0872 27.5397 31.0905 27.5471 31.0912H27.8671C27.8749 31.0906 27.8823 31.0875 27.8881 31.0823C27.8938 31.077 27.8977 31.0701 27.8991 31.0624V29.9744V29.76C27.9027 29.6081 27.862 29.4586 27.7818 29.3295C27.7017 29.2005 27.5856 29.0977 27.4479 29.0336ZM27.5151 30.4064C27.5026 30.507 27.4537 30.5996 27.3777 30.6667C27.3017 30.7338 27.2037 30.7709 27.1023 30.7709C27.0009 30.7709 26.903 30.7338 26.827 30.6667C26.751 30.5996 26.7021 30.507 26.6895 30.4064V30.3712C26.7021 30.2706 26.751 30.178 26.827 30.1109C26.903 30.0437 27.0009 30.0067 27.1023 30.0067C27.2037 30.0067 27.3017 30.0437 27.3777 30.1109C27.4537 30.178 27.5026 30.2706 27.5151 30.3712V30.4064Z" fill="#FFC500"/>
<path fill-rule="evenodd" clip-rule="evenodd" d="M29.7934 29.3472C29.7304 29.2274 29.6339 29.1286 29.5157 29.0626C29.3975 28.9967 29.2628 28.9666 29.1278 28.976C29.029 28.9734 28.9308 28.9907 28.839 29.027C28.7472 29.0633 28.6636 29.1178 28.5934 29.1872V29.0464C28.5934 29.0387 28.5903 29.0314 28.5849 29.026C28.5795 29.0206 28.5722 29.0176 28.5646 29.0176H28.2222C28.2145 29.0176 28.2072 29.0206 28.2018 29.026C28.1964 29.0314 28.1934 29.0387 28.1934 29.0464V31.0752C28.1933 31.0788 28.1941 31.0824 28.1956 31.0858C28.197 31.0891 28.1992 31.0921 28.202 31.0945C28.2047 31.0969 28.2079 31.0987 28.2114 31.0998C28.2149 31.1009 28.2185 31.1012 28.2222 31.1008H28.5902C28.5938 31.1012 28.5975 31.1009 28.6009 31.0998C28.6044 31.0987 28.6076 31.0969 28.6104 31.0945C28.6131 31.0921 28.6153 31.0891 28.6168 31.0858C28.6182 31.0824 28.619 31.0788 28.619 31.0752V29.7248C28.6303 29.6187 28.6811 29.5207 28.7612 29.4502C28.8414 29.3798 28.9451 29.3421 29.0518 29.3445C29.1585 29.3469 29.2604 29.3893 29.3373 29.4633C29.4142 29.5373 29.4604 29.6375 29.467 29.744V31.0688C29.467 31.0764 29.47 31.0837 29.4754 31.0891C29.4808 31.0945 29.4881 31.0976 29.4958 31.0976H29.867C29.8746 31.0976 29.8819 31.0945 29.8873 31.0891C29.8927 31.0837 29.8958 31.0764 29.8958 31.0688V29.76C29.8929 29.6164 29.8579 29.4754 29.7934 29.3472Z" fill="#87CC2E"/>
<path fill-rule="evenodd" clip-rule="evenodd" d="M25.2816 28.9696C25.1827 28.9681 25.0846 28.9863 24.9928 29.0231C24.9011 29.06 24.8176 29.1146 24.7472 29.184V29.0368C24.7472 29.0327 24.7464 29.0287 24.7447 29.025C24.7431 29.0213 24.7407 29.018 24.7376 29.0152C24.7346 29.0125 24.7311 29.0105 24.7272 29.0092C24.7233 29.008 24.7192 29.0076 24.7152 29.008H24.376C24.3683 29.008 24.361 29.0111 24.3556 29.0165C24.3502 29.0219 24.3472 29.0292 24.3472 29.0368V31.792C24.3472 31.7997 24.3502 31.807 24.3556 31.8124C24.361 31.8178 24.3683 31.8208 24.376 31.8208H24.7472C24.7542 31.82 24.7608 31.8166 24.7655 31.8113C24.7702 31.806 24.7728 31.7991 24.7728 31.792V30.9472C24.913 31.0713 25.0944 31.1386 25.2816 31.136C25.4174 31.1457 25.5532 31.1154 25.672 31.0489C25.7908 30.9824 25.8876 30.8825 25.9504 30.7616C26.0127 30.6329 26.0455 30.4918 26.0464 30.3488V29.76C26.0471 29.6168 26.0142 29.4754 25.9504 29.3472C25.8881 29.2257 25.7915 29.1252 25.6726 29.0581C25.5537 28.991 25.4178 28.9602 25.2816 28.9696ZM25.6176 30.3648C25.6083 30.4709 25.5597 30.5697 25.4812 30.6417C25.4027 30.7136 25.3001 30.7535 25.1936 30.7535C25.0871 30.7535 24.9845 30.7136 24.906 30.6417C24.8275 30.5697 24.7788 30.4709 24.7696 30.3648V29.7248C24.7788 29.6187 24.8275 29.5199 24.906 29.448C24.9845 29.376 25.0871 29.3361 25.1936 29.3361C25.3001 29.3361 25.4027 29.376 25.4812 29.448C25.5597 29.5199 25.6083 29.6187 25.6176 29.7248V30.3648Z" fill="#F7552F"/>
<path fill-rule="evenodd" clip-rule="evenodd" d="M32.0622 28.9856C31.9779 28.9807 31.8935 28.9949 31.8154 29.027C31.7373 29.0591 31.6675 29.1084 31.611 29.1712C31.4416 29.0338 31.2272 28.9643 31.0094 28.976C30.8655 28.9623 30.7206 28.9881 30.5903 29.0507C30.4601 29.1133 30.3494 29.2103 30.2702 29.3312C30.2001 29.4518 30.1626 29.5885 30.1614 29.728V29.76C30.1626 29.8995 30.2001 30.0362 30.2702 30.1568C30.3232 30.2444 30.3954 30.3188 30.4814 30.3744C30.3804 30.426 30.2965 30.5058 30.2397 30.604C30.1829 30.7022 30.1557 30.8147 30.1614 30.928V31.0816C30.162 31.0894 30.1651 31.0967 30.1703 31.1025C30.1755 31.1083 30.1825 31.1122 30.1902 31.1136H31.4702C31.5256 31.1136 31.5789 31.1354 31.6184 31.1743C31.6579 31.2132 31.6805 31.2661 31.6814 31.3216C31.6814 31.4432 31.6014 31.5008 31.4606 31.552C31.4504 31.5562 31.4423 31.5644 31.4381 31.5746C31.4339 31.5848 31.4339 31.5962 31.4382 31.6064C31.4382 31.6064 31.5534 31.84 31.5598 31.856C31.5666 31.8614 31.5751 31.8644 31.5838 31.8644C31.5925 31.8644 31.601 31.8614 31.6078 31.856C31.7298 31.8247 31.838 31.7535 31.915 31.6538C31.9921 31.5542 32.0338 31.4316 32.0334 31.3056C32.0334 31.2318 32.0188 31.1587 31.9904 31.0906C31.9621 31.0224 31.9206 30.9605 31.8682 30.9085C31.8159 30.8564 31.7538 30.8153 31.6855 30.7873C31.6172 30.7593 31.544 30.7452 31.4702 30.7456H30.5614C30.6094 30.4896 30.907 30.4928 30.9422 30.4928H30.9902C31.134 30.5062 31.2788 30.4802 31.409 30.4176C31.5392 30.355 31.6499 30.2582 31.7294 30.1376C31.7999 30.017 31.8385 29.8804 31.8414 29.7408V29.728C31.8402 29.6176 31.8163 29.5087 31.771 29.408C31.8528 29.3558 31.9495 29.3321 32.0462 29.3408C32.0538 29.3408 32.0611 29.3378 32.0665 29.3324C32.0719 29.327 32.075 29.3196 32.075 29.312V29.0144C32.091 28.9984 32.0814 28.9856 32.0622 28.9856ZM31.4222 29.7504C31.413 29.8565 31.3643 29.9553 31.2858 30.0272C31.2073 30.0992 31.1047 30.1391 30.9982 30.1391C30.8917 30.1391 30.7891 30.0992 30.7106 30.0272C30.6321 29.9553 30.5834 29.8565 30.5742 29.7504V29.7248C30.5834 29.6187 30.6321 29.5199 30.7106 29.448C30.7891 29.376 30.8917 29.3361 30.9982 29.3361C31.1047 29.3361 31.2073 29.376 31.2858 29.448C31.3643 29.5199 31.413 29.6187 31.4222 29.7248V29.7504Z" fill="#30B5DC"/>
</g>
<path d="M58.38 25.42V26.224H54.012V30.388H53.028V26.224H48.648V25.42H55.776C55.956 24.652 56.052 23.992 56.1 23.38L49.692 23.692L49.56 22.864L56.16 22.612C56.184 22.144 56.184 21.712 56.184 21.28V21.1H49.872V20.296H57.132V21.28C57.132 22.408 57.132 23.656 56.748 25.42H58.38ZM62.0271 21.352V24.616C62.5911 24.604 63.1671 24.58 63.7431 24.544V21.352H62.0271ZM66.2631 24.316L66.3351 25.048C64.1631 25.42 61.6431 25.456 59.8191 25.456L59.7111 24.64C60.1191 24.64 60.5871 24.64 61.0671 24.628V21.352H60.0111V20.56H65.7591V21.352H64.6911V24.484C65.2311 24.436 65.7591 24.376 66.2631 24.316ZM64.5951 29.596C66.2031 29.596 67.1631 29.164 67.1631 28.408C67.1631 27.664 66.2031 27.232 64.5951 27.232C62.9991 27.232 62.0271 27.664 62.0271 28.408C62.0271 29.164 62.9991 29.596 64.5951 29.596ZM64.5951 26.452C66.7791 26.452 68.1351 27.16 68.1351 28.408C68.1351 29.656 66.7791 30.376 64.5951 30.376C62.3991 30.376 61.0551 29.656 61.0551 28.408C61.0551 27.16 62.3991 26.452 64.5951 26.452ZM68.0271 22.408H69.6231V23.224H68.0271V26.224H67.0431V19.636H68.0271V22.408ZM76.9061 22.768V20.716H74.2301V22.768H76.9061ZM73.2461 22.768V20.716H71.6141V19.96H79.5101V20.716H77.8901V22.768H79.4741V23.524H71.6501V22.768H73.2461ZM72.8741 28.516V29.524H79.5221V30.268H71.9141V27.808H78.2261V26.884H71.8781V26.152H79.1981V28.516H72.8741ZM70.7021 24.424H80.4461V25.204H70.7021V24.424ZM83.0612 24.544V26.92C84.2852 26.92 85.4492 26.872 86.8292 26.632L86.9132 27.436C85.4132 27.688 84.1892 27.748 82.8212 27.748H82.1132V23.764H84.9932V21.616H82.0772V20.812H85.9412V24.544H83.0612ZM87.7772 23.488V19.888H88.7012V29.824H87.7772V24.304H86.4452V23.488H87.7772ZM89.9492 19.624H90.8972V30.388H89.9492V19.624ZM100.616 19.624H101.6V30.412H100.616V19.624ZM95.9243 20.452C97.5203 20.452 98.6603 21.916 98.6603 24.208C98.6603 26.5 97.5203 27.964 95.9243 27.964C94.3283 27.964 93.1883 26.5 93.1883 24.208C93.1883 21.916 94.3283 20.452 95.9243 20.452ZM95.9243 21.34C94.8683 21.34 94.1243 22.468 94.1243 24.208C94.1243 25.96 94.8683 27.088 95.9243 27.088C96.9683 27.088 97.7123 25.96 97.7123 24.208C97.7123 22.468 96.9683 21.34 95.9243 21.34Z" fill="white"/>
<path d="M158.957 22.0455C159.014 22.1065 159.014 22.2048 158.957 22.2647L157.335 24L158.957 25.7353C159.014 25.7963 159.014 25.8945 158.957 25.9545C158.929 25.9845 158.891 26 158.855 26C158.818 26 158.78 25.9845 158.752 25.9545L157.043 24.1262C157.015 24.0962 157 24.0558 157 24.0165C157 24.0114 157.003 24.0052 157.003 24C157.002 23.9948 157 23.9886 157 23.9835C157 23.9442 157.015 23.9038 157.043 23.8738L158.752 22.0455C158.78 22.0155 158.818 22 158.855 22C158.891 22 158.929 22.0155 158.957 22.0455Z" fill="white"/>
<path d="M165.256 22.28H166.672V20.424H167.336V24.696H166.672V22.816H165.256V22.28ZM165.656 23.912L165.328 24.424C164.528 24.136 163.912 23.544 163.6 22.808C163.296 23.64 162.632 24.312 161.792 24.632L161.448 24.112C162.52 23.72 163.256 22.752 163.256 21.72V21.472H161.656V20.944H165.488V21.472H163.912V21.72C163.912 22.64 164.616 23.544 165.656 23.912ZM164.968 27.08C166.048 27.08 166.704 26.776 166.704 26.256C166.704 25.736 166.048 25.424 164.968 25.424C163.888 25.424 163.232 25.736 163.232 26.256C163.232 26.776 163.888 27.08 164.968 27.08ZM164.968 24.92C166.44 24.92 167.36 25.408 167.36 26.256C167.36 27.104 166.44 27.592 164.968 27.592C163.496 27.592 162.576 27.104 162.576 26.256C162.576 25.408 163.496 24.92 164.968 24.92ZM169.447 22.56C169.447 23.224 169.887 23.704 170.487 23.704C171.079 23.704 171.519 23.224 171.519 22.56C171.519 21.896 171.079 21.416 170.487 21.416C169.887 21.416 169.447 21.896 169.447 22.56ZM172.119 22.56C172.119 23.56 171.423 24.248 170.487 24.248C169.543 24.248 168.855 23.56 168.855 22.56C168.855 21.552 169.543 20.864 170.487 20.864C171.423 20.864 172.119 21.552 172.119 22.56ZM170.015 25.624V25.096H174.839V27.6H174.183V25.624H170.015ZM174.207 20.416H174.839V24.688H174.207V22.8H173.295V24.648H172.679V20.552H173.295V22.264H174.207V20.416ZM178.247 21.792V22.44C178.247 23.688 178.783 24.936 179.775 25.496L179.375 25.976C178.679 25.56 178.183 24.792 177.935 23.88C177.687 24.864 177.167 25.704 176.455 26.152L176.055 25.664C177.055 25.064 177.615 23.76 177.615 22.44V21.792H176.255V21.256H179.527V21.792H178.247ZM180.167 22.992V20.576H180.791V27.216H180.167V23.528H178.983V22.992H180.167ZM181.607 20.408H182.239V27.584H181.607V20.408Z" fill="white"/>
<defs>
<linearGradient id="paint0_linear_216_411" x1="19.5154" y1="24.192" x2="20.4466" y2="25.8048" gradientUnits="userSpaceOnUse">
<stop stop-color="#27C0FF"/>
<stop offset="1" stop-color="#0890FF"/>
</linearGradient>
<linearGradient id="paint1_linear_216_411" x1="21.5887" y1="16.048" x2="26.7439" y2="24.976" gradientUnits="userSpaceOnUse">
<stop stop-color="#53D2FF"/>
<stop offset="1" stop-color="#02AFFF"/>
</linearGradient>
<linearGradient id="paint2_linear_216_411" x1="20.8206" y1="23.4368" x2="21.7518" y2="25.0496" gradientUnits="userSpaceOnUse">
<stop stop-color="#27C0FF"/>
<stop offset="1" stop-color="#0890FF"/>
</linearGradient>
<linearGradient id="paint3_linear_216_411" x1="17.8126" y1="18.2272" x2="22.9678" y2="27.1553" gradientUnits="userSpaceOnUse">
<stop stop-color="#53D2FF"/>
<stop offset="1" stop-color="#02AFFF"/>
</linearGradient>
<linearGradient id="paint4_linear_216_411" x1="29.7808" y1="18.3968" x2="30.7088" y2="20.0064" gradientUnits="userSpaceOnUse">
<stop stop-color="#23BDFF"/>
<stop offset="1" stop-color="#0890FF"/>
</linearGradient>
<clipPath id="clip0_216_411">
<rect width="32" height="32" fill="white" transform="translate(9 8)"/>
</clipPath>
</defs>
</svg>
