<svg width="193" height="48" viewBox="0 0 193 48" fill="none" xmlns="http://www.w3.org/2000/svg">
<rect width="193" height="48" rx="5" fill="#003E98"/>
<circle cx="25" cy="24" r="16" fill="url(#paint0_linear_19_10668)"/>
<path d="M30.2527 25.1867C29.9043 25.2667 28.9872 25.3128 28.9872 25.3128L28.871 25.6764C28.871 25.6764 29.3284 25.6376 29.6623 25.6716C29.6623 25.6716 29.7712 25.6594 29.7833 25.7952C29.7881 25.9212 29.7736 26.057 29.7736 26.057C29.7736 26.057 29.7663 26.1394 29.6502 26.1588C29.5244 26.1806 28.6629 26.2121 28.6629 26.2121L28.5226 26.6849C28.5226 26.6849 28.4717 26.7939 28.5879 26.7624C28.6968 26.7333 29.5994 26.5636 29.7179 26.5879C29.8438 26.6194 29.9841 26.7867 29.943 26.9418C29.8946 27.1309 28.9944 27.7079 28.4451 27.6666C28.4451 27.6666 28.1572 27.686 27.9128 27.2957C27.6853 26.9249 27.9999 26.2194 27.9999 26.2194C27.9999 26.2194 27.8571 25.8897 27.9612 25.7806C27.9612 25.7806 28.0241 25.7249 28.2031 25.7103L28.4233 25.2522C28.4233 25.2522 28.1717 25.2691 28.0217 25.0849C27.8813 24.9079 27.8716 24.8279 27.9781 24.7795C28.0918 24.7237 29.1396 24.5322 29.8607 24.5564C29.8607 24.5564 30.1124 24.5322 30.3277 24.9685C30.3253 24.9685 30.4318 25.1455 30.2527 25.1867ZM27.5401 26.9467C27.4482 27.1648 27.2038 27.3976 26.9013 27.2521C26.6012 27.1067 26.1245 26.1297 26.1245 26.1297C26.1245 26.1297 25.943 25.7661 25.9092 25.7734C25.9092 25.7734 25.8704 25.7031 25.8462 26.1006C25.822 26.4982 25.8511 27.2715 25.6938 27.3927C25.5438 27.5139 25.3623 27.4654 25.2679 27.3224C25.1832 27.1818 25.1469 26.8473 25.1929 26.2606C25.2485 25.674 25.3841 25.0485 25.5583 24.8522C25.7325 24.6582 25.8729 24.7988 25.9261 24.8498C25.9261 24.8498 26.1584 25.0607 26.5431 25.6812L26.6109 25.7952C26.6109 25.7952 26.9594 26.3818 26.9957 26.3794C26.9957 26.3794 27.0247 26.4061 27.0489 26.3867C27.0852 26.377 27.0707 26.1879 27.0707 26.1879C27.0707 26.1879 26.9981 25.5503 26.6811 24.4692C26.6811 24.4692 26.6327 24.3334 26.6666 24.2073C26.698 24.0789 26.8263 24.1395 26.8263 24.1395C26.8263 24.1395 27.3199 24.3867 27.5571 25.1916C27.7918 26.0037 27.6321 26.7285 27.5401 26.9467ZM25.1155 24.8788C25.0743 24.9613 25.0501 25.0801 24.842 25.1116C24.842 25.1116 22.8505 25.2473 22.7561 25.3879C22.7561 25.3879 22.686 25.4703 22.7949 25.4946C22.9037 25.5164 23.3538 25.577 23.5716 25.5891C23.8039 25.5916 24.5879 25.5988 24.8686 25.9503C24.8686 25.9503 25.0356 26.1176 25.0283 26.4958C25.0211 26.8836 24.9533 27.0194 24.8033 27.16C24.646 27.2909 23.2958 27.8969 22.4246 26.9661C22.4246 26.9661 22.0229 26.5176 22.5626 26.1782C22.5626 26.1782 22.9521 25.9431 23.9418 26.2194C23.9418 26.2194 24.2419 26.3285 24.2274 26.4376C24.2104 26.554 23.9806 26.6776 23.6466 26.6703C23.3224 26.6606 23.0852 26.5055 23.1312 26.5297C23.1748 26.5467 22.7828 26.3406 22.6618 26.4812C22.5408 26.6097 22.5698 26.6897 22.6884 26.7697C22.9909 26.9418 24.1596 26.8812 24.5081 26.4933C24.5081 26.4933 24.646 26.3358 24.4355 26.2073C24.225 26.0861 23.6224 26.0134 23.3877 26.0012C23.1627 25.9891 22.3254 26.0037 22.2044 25.7806C22.2044 25.7806 22.0834 25.6303 22.2165 25.2037C22.3569 24.7576 23.3321 24.5855 23.7531 24.5467C23.7531 24.5467 24.9122 24.5055 25.1251 24.7431C25.1227 24.7431 25.1518 24.7988 25.1155 24.8788ZM21.8245 27.4945C21.6842 27.5988 21.3865 27.5527 21.3018 27.4364C21.2171 27.3321 21.1881 26.9176 21.205 26.2679C21.222 25.6109 21.2365 24.7964 21.3768 24.6679C21.5269 24.537 21.6188 24.651 21.6769 24.7407C21.7398 24.8279 21.8148 24.9249 21.8318 25.131C21.8463 25.337 21.8947 26.4182 21.8947 26.4182C21.8947 26.4182 21.9576 27.3927 21.8245 27.4945ZM22.127 24.0086C21.718 24.1443 21.4373 24.0983 21.2002 23.9964C21.0961 24.1783 21.0357 24.234 20.9558 24.2461C20.8396 24.2583 20.7356 24.0716 20.7162 24.011C20.6969 23.9649 20.6412 23.8874 20.709 23.7031C20.4767 23.4946 20.4597 23.2134 20.4985 23.0243C20.5565 22.8062 20.9485 21.9771 22.1415 21.8801C22.1415 21.8801 22.7247 21.8365 22.8239 22.1492H22.8408C22.8408 22.1492 23.4071 22.1516 23.395 22.6559C23.3877 23.1625 22.7658 23.7928 22.127 24.0086ZM21.0139 22.8862C20.8929 23.0801 20.888 23.1965 20.9437 23.2765C21.0816 23.0656 21.3333 22.7334 21.7035 22.4813C21.418 22.5056 21.1784 22.6292 21.0139 22.8862ZM22.6618 22.5613C22.2867 22.6171 21.7059 23.1213 21.4301 23.5334C21.8535 23.611 22.6013 23.5819 22.9328 22.9056C22.9304 22.9056 23.0901 22.4862 22.6618 22.5613ZM32.8443 26.4667C32.6193 26.8594 31.9877 27.6788 31.1456 27.4873C30.8674 28.1636 30.6351 28.8448 30.502 29.8678C30.502 29.8678 30.4729 30.0666 30.3084 29.9963C30.1462 29.9381 29.8752 29.6666 29.822 29.2908C29.7639 28.7963 29.9841 27.96 30.4318 27.0024C30.3011 26.7891 30.2116 26.4836 30.289 26.0497C30.289 26.0497 30.4028 25.2449 31.2085 24.5176C31.2085 24.5176 31.3053 24.4328 31.361 24.4595C31.4239 24.4861 31.3949 24.7479 31.3441 24.874C31.2932 25.0001 30.9327 25.6255 30.9327 25.6255C30.9327 25.6255 30.7076 26.0473 30.7706 26.3794C31.194 25.7273 32.1571 24.411 32.7548 24.8255C32.9557 24.9685 33.0476 25.2813 33.0476 25.6182C33.0452 25.9164 32.975 26.2315 32.8443 26.4667ZM32.6701 25.434C32.6701 25.434 32.6362 25.1746 32.3846 25.4606C32.1668 25.7006 31.7748 26.154 31.4578 26.7673C31.7893 26.7309 32.1087 26.5491 32.2055 26.457C32.3628 26.3164 32.7282 25.9382 32.6701 25.434ZM20.9219 25.7637C20.8759 26.3503 20.6509 27.337 19.0562 27.8242C18.0036 28.1418 17.0091 27.9891 16.467 27.8509C16.4549 28.0666 16.4307 28.1588 16.3969 28.1951C16.3509 28.2412 16.0073 28.44 15.8185 28.1588C15.7338 28.0254 15.6903 27.783 15.6661 27.5673C14.4465 27.0048 13.8851 26.1952 13.8633 26.1588C13.8367 26.1321 13.5584 25.8412 13.8367 25.4849C14.098 25.1625 14.9522 24.8401 15.7217 24.7092C15.7484 24.0498 15.8258 23.5528 15.9177 23.3249C16.0291 23.0607 16.1694 23.2983 16.2904 23.4777C16.392 23.611 16.4525 24.1855 16.4574 24.6437C16.9607 24.6195 17.2583 24.6558 17.8197 24.7576C18.5505 24.891 19.0393 25.2643 18.9957 25.6885C18.9643 26.1055 18.582 26.2776 18.4368 26.2897C18.2843 26.3018 18.0472 26.1927 18.0472 26.1927C17.8851 26.1152 18.0351 26.0473 18.2311 25.9625C18.444 25.8582 18.3956 25.7515 18.3956 25.7515C18.3158 25.5188 17.3672 25.3564 16.4235 25.3564C16.4186 25.8776 16.4453 26.743 16.4574 27.2473C17.118 27.3733 17.6116 27.3491 17.6116 27.3491C17.6116 27.3491 20.0217 27.2812 20.0943 25.7394C20.1694 24.1952 17.6915 22.7141 15.8597 22.2438C14.0303 21.7638 12.9946 22.0983 12.9051 22.1444C12.8083 22.1929 12.8978 22.2074 12.8978 22.2074C12.8978 22.2074 12.997 22.2219 13.1688 22.2801C13.3503 22.3383 13.21 22.4328 13.21 22.4328C12.8978 22.5322 12.5469 22.4692 12.4792 22.3262C12.4114 22.1832 12.5252 22.0547 12.6558 21.8704C12.7865 21.6765 12.9293 21.6838 12.9293 21.6838C15.1918 20.8983 17.948 22.3189 17.948 22.3189C20.5299 23.6304 20.9703 25.1673 20.9219 25.7637ZM14.0932 25.6837C13.8367 25.8097 14.0134 25.9915 14.0134 25.9915C14.4949 26.5103 15.0877 26.8352 15.6516 27.0364C15.7169 26.1418 15.7072 25.8267 15.7145 25.3758C14.8337 25.4364 14.3255 25.577 14.0932 25.6837Z" fill="white"/>
<path d="M37.6356 25.4994V25.8194C37.6356 25.8897 37.58 25.9455 37.5098 25.9455H35.9877C35.9877 26.0255 35.9901 26.0958 35.9901 26.1612C35.9901 26.634 35.9708 27.0194 35.9248 27.4533C35.9175 27.5188 35.8643 27.5673 35.8014 27.5673H35.4723C35.4384 27.5673 35.407 27.5527 35.3852 27.5285C35.3634 27.5042 35.3513 27.4703 35.3561 27.4364C35.4021 27.0048 35.4239 26.6243 35.4239 26.1612C35.4239 26.0934 35.4239 26.0231 35.4215 25.9455H33.9164C33.8462 25.9455 33.7905 25.8897 33.7905 25.8194V25.4994C33.7905 25.4291 33.8462 25.3734 33.9164 25.3734H35.3997C35.3682 24.8522 35.3053 24.3504 35.2037 23.8413C35.1989 23.8098 35.2061 23.7783 35.2255 23.754C35.2448 23.7298 35.2739 23.7152 35.3053 23.7152H35.661C35.7167 23.7152 35.7627 23.754 35.7748 23.8098C35.874 24.3358 35.9369 24.8473 35.9684 25.3734H37.5098C37.5775 25.3734 37.6356 25.4316 37.6356 25.4994Z" fill="white"/>
<path d="M35.5643 22.9613C34.7778 21.0244 33.4494 19.3735 31.7216 18.1857C29.9527 16.9712 27.879 16.3288 25.7253 16.3288C22.1634 16.3288 18.8579 18.1008 16.8857 21.0705C16.864 21.102 16.8591 21.1432 16.8712 21.1795C16.8833 21.2183 16.9124 21.245 16.9487 21.2571L17.2245 21.3517C17.2415 21.3565 17.2584 21.3589 17.2729 21.3589C17.3237 21.3589 17.3721 21.3323 17.4012 21.2911C18.3062 19.9578 19.5306 18.8499 20.9438 18.0839C22.4029 17.2936 24.0557 16.8742 25.7229 16.8742C27.7386 16.8742 29.6817 17.4706 31.3466 18.5954C32.9702 19.6935 34.231 21.228 34.9932 23.0292C35.015 23.0825 35.0682 23.1189 35.1263 23.1189H35.4554C35.4941 23.1189 35.5304 23.0995 35.5498 23.068C35.574 23.0365 35.5788 22.9977 35.5643 22.9613ZM17.2729 21.2765H17.2778C17.2778 21.2765 17.2753 21.2765 17.2729 21.2765ZM35.0585 23.0753C35.0658 23.0801 35.0731 23.085 35.0803 23.0874C35.0731 23.0825 35.0658 23.0801 35.0585 23.0753Z" fill="url(#paint1_radial_19_10668)"/>
<path d="M50.304 21.472V26.896C52.38 26.896 53.736 26.836 55.32 26.536L55.428 27.364C53.772 27.664 52.368 27.736 50.196 27.736H49.332V20.644H54.42V21.472H50.304ZM56.46 19.624H57.444V30.412H56.46V19.624ZM60.5631 26.272L60.1431 25.492C62.0031 25.168 64.0431 23.668 64.0431 21.964V21.496H60.4791V20.692H68.6271V21.496H65.0631V21.964C65.0631 23.668 67.1151 25.144 68.9871 25.456L68.5911 26.248C66.9591 25.912 65.2431 24.856 64.5591 23.38C63.8751 24.868 62.1831 25.948 60.5631 26.272ZM59.6751 28.144H69.4431V28.96H59.6751V28.144ZM72.3701 20.668V26.764C73.9901 26.764 75.6581 26.62 77.4461 26.26L77.5541 27.1C75.6821 27.484 73.9901 27.604 72.2741 27.604H71.3861V20.668H72.3701ZM78.5501 19.624H79.5341V30.376H78.5501V19.624ZM87.9452 22.768V20.716H85.2692V22.768H87.9452ZM84.2852 22.768V20.716H82.6532V19.96H90.5492V20.716H88.9292V22.768H90.5132V23.524H82.6892V22.768H84.2852ZM83.9132 28.516V29.524H90.5612V30.268H82.9532V27.808H89.2652V26.884H82.9172V26.152H90.2372V28.516H83.9132ZM81.7412 24.424H91.4852V25.204H81.7412V24.424ZM94.1603 24.388V26.992C95.9963 26.992 97.3043 26.92 98.8523 26.644L98.9483 27.46C97.3283 27.748 95.9603 27.808 94.0163 27.808H93.1883V23.596H97.0163V21.424H93.1643V20.62H97.9763V24.388H94.1603ZM100.664 19.612H101.648V30.4H100.664V24.568H98.6123V23.764H100.664V19.612ZM113.107 25.036L112.663 25.852C111.031 25.48 109.351 24.328 108.667 22.744C107.983 24.316 106.303 25.468 104.683 25.852L104.239 25.036C106.123 24.664 108.151 23.044 108.151 21.208V20.38H109.183V21.208C109.183 23.044 111.223 24.676 113.107 25.036ZM103.831 28.132H113.587V28.948H103.831V28.132Z" fill="white"/>
<path d="M158.957 22.0455C159.014 22.1065 159.014 22.2048 158.957 22.2647L157.335 24L158.957 25.7353C159.014 25.7963 159.014 25.8945 158.957 25.9545C158.929 25.9845 158.891 26 158.855 26C158.818 26 158.78 25.9845 158.752 25.9545L157.043 24.1262C157.015 24.0962 157 24.0558 157 24.0165C157 24.0114 157.003 24.0052 157.003 24C157.002 23.9948 157 23.9886 157 23.9835C157 23.9442 157.015 23.9038 157.043 23.8738L158.752 22.0455C158.78 22.0155 158.818 22 158.855 22C158.891 22 158.929 22.0155 158.957 22.0455Z" fill="white"/>
<path d="M165.264 22.264H166.888V22.816H165.264V22.264ZM166.688 20.384H167.352V24.696H166.688V20.384ZM164.968 24.92C165.469 24.92 165.899 24.9733 166.256 25.08C166.619 25.1867 166.896 25.3413 167.088 25.544C167.28 25.7413 167.376 25.984 167.376 26.272C167.376 26.6987 167.16 27.0293 166.728 27.264C166.301 27.4987 165.715 27.616 164.968 27.616C164.221 27.616 163.632 27.4987 163.2 27.264C162.773 27.0293 162.56 26.6987 162.56 26.272C162.56 25.984 162.656 25.7413 162.848 25.544C163.045 25.3413 163.323 25.1867 163.68 25.08C164.043 24.9733 164.472 24.92 164.968 24.92ZM164.968 25.44C164.605 25.44 164.293 25.472 164.032 25.536C163.771 25.6 163.568 25.6933 163.424 25.816C163.285 25.9387 163.216 26.0907 163.216 26.272C163.216 26.4427 163.285 26.5893 163.424 26.712C163.568 26.8347 163.771 26.9307 164.032 27C164.293 27.064 164.605 27.096 164.968 27.096C165.336 27.096 165.648 27.064 165.904 27C166.165 26.9307 166.365 26.8347 166.504 26.712C166.648 26.5893 166.72 26.4427 166.72 26.272C166.72 26.0907 166.648 25.9387 166.504 25.816C166.365 25.6933 166.165 25.6 165.904 25.536C165.648 25.472 165.336 25.44 164.968 25.44ZM163.24 21.12H163.784V21.704C163.784 22.1467 163.699 22.5627 163.528 22.952C163.363 23.336 163.128 23.6747 162.824 23.968C162.52 24.256 162.168 24.4773 161.768 24.632L161.424 24.104C161.696 24.008 161.941 23.8773 162.16 23.712C162.384 23.5467 162.576 23.3573 162.736 23.144C162.901 22.9307 163.027 22.7013 163.112 22.456C163.197 22.2107 163.24 21.96 163.24 21.704V21.12ZM163.368 21.12H163.912V21.696C163.912 22.0053 163.984 22.3067 164.128 22.6C164.272 22.8933 164.477 23.152 164.744 23.376C165.011 23.6 165.317 23.776 165.664 23.904L165.328 24.432C164.933 24.288 164.589 24.08 164.296 23.808C164.003 23.5307 163.773 23.2107 163.608 22.848C163.448 22.4853 163.368 22.1013 163.368 21.696V21.12ZM161.632 20.912H165.496V21.456H161.632V20.912ZM170.471 20.84C170.791 20.84 171.074 20.912 171.319 21.056C171.565 21.2 171.759 21.4027 171.903 21.664C172.047 21.92 172.119 22.216 172.119 22.552C172.119 22.888 172.047 23.184 171.903 23.44C171.759 23.696 171.565 23.896 171.319 24.04C171.074 24.1787 170.791 24.248 170.471 24.248C170.151 24.248 169.869 24.1787 169.623 24.04C169.378 23.896 169.183 23.696 169.039 23.44C168.901 23.184 168.831 22.888 168.831 22.552C168.831 22.216 168.901 21.92 169.039 21.664C169.183 21.4027 169.378 21.2 169.623 21.056C169.869 20.912 170.151 20.84 170.471 20.84ZM170.471 21.408C170.274 21.408 170.095 21.456 169.935 21.552C169.781 21.648 169.658 21.784 169.567 21.96C169.477 22.1307 169.431 22.328 169.431 22.552C169.431 22.776 169.477 22.9733 169.567 23.144C169.658 23.3147 169.781 23.4507 169.935 23.552C170.095 23.648 170.274 23.696 170.471 23.696C170.669 23.696 170.845 23.648 170.999 23.552C171.159 23.4507 171.285 23.3147 171.375 23.144C171.466 22.9733 171.511 22.776 171.511 22.552C171.511 22.328 171.466 22.1307 171.375 21.96C171.285 21.784 171.159 21.648 170.999 21.552C170.845 21.456 170.669 21.408 170.471 21.408ZM174.223 20.392H174.855V24.696H174.223V20.392ZM173.055 22.248H174.415V22.8H173.055V22.248ZM172.679 20.528H173.303V24.648H172.679V20.528ZM170.007 25.096H174.855V27.624H174.199V25.64H170.007V25.096ZM181.623 20.384H182.255V27.624H181.623V20.384ZM178.983 22.984H180.375V23.528H178.983V22.984ZM180.175 20.552H180.799V27.248H180.175V20.552ZM177.599 21.512H178.111V22.432C178.111 22.8267 178.073 23.2133 177.999 23.592C177.924 23.9653 177.815 24.3173 177.671 24.648C177.527 24.9733 177.351 25.2693 177.143 25.536C176.935 25.7973 176.7 26.0107 176.439 26.176L176.031 25.68C176.367 25.4773 176.649 25.2053 176.879 24.864C177.113 24.5227 177.292 24.1413 177.415 23.72C177.537 23.2987 177.599 22.8693 177.599 22.432V21.512ZM177.735 21.512H178.239V22.432C178.239 22.848 178.297 23.256 178.415 23.656C178.537 24.056 178.711 24.4187 178.935 24.744C179.164 25.064 179.444 25.32 179.775 25.512L179.375 26.008C179.023 25.7893 178.724 25.4987 178.479 25.136C178.239 24.768 178.055 24.352 177.927 23.888C177.799 23.4187 177.735 22.9333 177.735 22.432V21.512ZM176.231 21.232H179.535V21.776H176.231V21.232Z" fill="white"/>
<defs>
<linearGradient id="paint0_linear_19_10668" x1="25" y1="8" x2="25" y2="40" gradientUnits="userSpaceOnUse">
<stop stop-color="#0A1032"/>
<stop offset="0.791667" stop-color="#204199"/>
</linearGradient>
<radialGradient id="paint1_radial_19_10668" cx="0" cy="0" r="1" gradientUnits="userSpaceOnUse" gradientTransform="translate(35.2551 23.1067) scale(18.3936 18.4268)">
<stop offset="0.007" stop-color="#021192"/>
<stop offset="0.03" stop-color="#021096"/>
<stop offset="0.057" stop-color="#010CB4"/>
<stop offset="0.084" stop-color="#0008CE"/>
<stop offset="0.111" stop-color="#0006D7"/>
<stop offset="0.138" stop-color="#0004E1"/>
<stop offset="0.165" stop-color="#0001FA"/>
<stop offset="0.191" stop-color="#0000FE"/>
<stop offset="0.216" stop-color="#0F1EFF"/>
<stop offset="1" stop-color="#00FFFF" stop-opacity="0"/>
</radialGradient>
</defs>
</svg>
