<svg width="23" height="20" viewBox="0 0 23 20" fill="none" xmlns="http://www.w3.org/2000/svg">
<g clip-path="url(#clip0_415_319)">
<path fill-rule="evenodd" clip-rule="evenodd" d="M22.7026 8.70268C22.7052 8.68295 22.7052 8.66295 22.7026 8.64322C22.7026 8.64322 22.7026 8.59458 22.7026 8.57295C22.7026 8.55133 22.7026 8.53512 22.7026 8.51349C22.7026 8.49187 22.7026 8.47025 22.7026 8.44322V8.38376V8.3189C22.7048 8.29914 22.7048 8.2792 22.7026 8.25944C22.7026 8.25944 22.7026 8.2162 22.7026 8.19458C22.7026 8.17296 22.7025 8.15674 22.6755 8.14052L22.6431 8.07566L22.6107 8.0216L22.5728 7.96214L22.5404 7.91349L22.4918 7.85403L22.4539 7.81079L22.3945 7.75133C22.3806 7.74012 22.3678 7.72743 22.3566 7.7135L22.2485 7.62701L18.6647 4.98377V0.65944C18.6655 0.578517 18.6502 0.498245 18.6199 0.42321C18.5896 0.348174 18.5448 0.279839 18.488 0.222115C18.4313 0.164392 18.3638 0.118405 18.2893 0.0867821C18.2148 0.0551596 18.1349 0.0385205 18.0539 0.0378138H16.1296C16.0487 0.0385205 15.9687 0.0551596 15.8942 0.0867821C15.8197 0.118405 15.7522 0.164392 15.6955 0.222115C15.6388 0.279839 15.5939 0.348174 15.5636 0.42321C15.5333 0.498245 15.5181 0.578517 15.5188 0.65944V2.18376V2.63241L12.3188 0.27025C12.2252 0.194958 12.1214 0.133102 12.0107 0.0864687C11.8496 0.0193675 11.677 -0.0155256 11.5026 -0.0162354H11.4647C11.2922 -0.0140234 11.1216 0.0208254 10.962 0.0864687C10.849 0.131756 10.7432 0.193701 10.6485 0.27025L0.718764 7.59998L0.610682 7.69187L0.562052 7.74052L0.513356 7.78917L0.464725 7.84863L0.426917 7.89187L0.383631 7.95674L0.351233 8.00538L0.318769 8.07025L0.286371 8.1243C0.279698 8.14683 0.270611 8.16857 0.259317 8.18917C0.259317 8.18917 0.259317 8.22701 0.259317 8.24863C0.256994 8.27019 0.256994 8.29193 0.259317 8.31349V8.37295V8.44322C0.256713 8.46476 0.256713 8.48654 0.259317 8.50808C0.259317 8.50808 0.259317 8.55133 0.259317 8.57295C0.259317 8.59458 0.259317 8.61619 0.259317 8.63782C0.25666 8.65936 0.25666 8.68114 0.259317 8.70268V8.77295C0.259317 8.77295 0.259317 8.81619 0.259317 8.83781C0.259317 8.85944 0.259317 8.88106 0.259317 8.90809C0.256772 8.92782 0.256772 8.94781 0.259317 8.96755C0.259317 8.99457 0.259317 9.0162 0.259317 9.03782V9.10268C0.256994 9.12424 0.256994 9.14598 0.259317 9.16754C0.256994 9.1891 0.256994 9.21086 0.259317 9.23241C0.257185 9.25398 0.257185 9.27571 0.259317 9.29728C0.26599 9.3198 0.275077 9.34154 0.286371 9.36214L0.318769 9.4216L0.356644 9.48106C0.354001 9.49535 0.354001 9.51001 0.356644 9.5243V9.55673C0.461889 9.70522 0.595676 9.83121 0.750238 9.92731C0.9048 10.0234 1.07701 10.0877 1.25673 10.1164C1.43646 10.1451 1.62007 10.1376 1.79688 10.0944C1.97368 10.0512 2.1401 9.97318 2.28634 9.86485L2.96202 9.36214V18.6216C2.95911 18.663 2.95911 18.7045 2.96202 18.7459V18.7838V18.8703C2.96202 18.8703 2.96202 18.9027 2.96202 18.9135C2.95956 18.9423 2.95956 18.9712 2.96202 19C2.95968 19.0107 2.95968 19.0217 2.96202 19.0324C2.97218 19.071 2.98486 19.1089 2.99989 19.1459V19.173L3.0377 19.254C3.03948 19.2666 3.03948 19.2793 3.0377 19.2919L3.08092 19.3567C3.08674 19.3713 3.09604 19.3843 3.10798 19.3946C3.23361 19.5651 3.39604 19.7052 3.58319 19.8044C3.77034 19.9035 3.97741 19.9593 4.18906 19.9676H9.05392C9.12036 19.9661 9.18362 19.9387 9.2301 19.8912C9.27658 19.8438 9.30256 19.7799 9.30255 19.7135V16.9189C9.2997 16.647 9.35046 16.3772 9.45187 16.125C9.55328 15.8727 9.7034 15.6429 9.89363 15.4486C10.0839 15.2544 10.3105 15.0995 10.5606 14.9928C10.8107 14.8862 11.0793 14.8298 11.3512 14.827C11.8818 14.8425 12.3852 15.065 12.7538 15.4468C13.1225 15.8286 13.3273 16.3395 13.3242 16.8702V19.7135C13.3242 19.7809 13.3509 19.8455 13.3986 19.8931C13.4462 19.9408 13.5109 19.9676 13.5782 19.9676H18.4431C18.6602 19.9638 18.8736 19.9102 19.0667 19.8108C19.2597 19.7115 19.4274 19.569 19.5567 19.3946C19.5577 19.382 19.5577 19.3693 19.5567 19.3567L19.5999 19.2919C19.6016 19.2793 19.6016 19.2666 19.5999 19.254L19.6431 19.173C19.6431 19.173 19.6431 19.173 19.6431 19.1459L19.6864 19.0324C19.684 19.0217 19.684 19.0107 19.6864 19C19.6864 19 19.6864 18.9405 19.6864 18.9135C19.6864 18.8865 19.6864 18.9135 19.6864 18.8703V18.7892C19.6864 18.7892 19.6864 18.7621 19.6864 18.7459C19.6892 18.7045 19.6892 18.663 19.6864 18.6216V9.37295L20.3675 9.87566C20.5137 9.98399 20.6801 10.062 20.8569 10.1052C21.0337 10.1484 21.2174 10.1559 21.3971 10.1272C21.5768 10.0985 21.7489 10.0342 21.9035 9.93811C22.0581 9.84201 22.1919 9.71603 22.2972 9.56755L22.3674 9.45944C22.3692 9.44327 22.3692 9.42696 22.3674 9.41079C22.3674 9.41079 22.3944 9.36215 22.4052 9.33512C22.4061 9.31711 22.4061 9.29907 22.4052 9.28106C22.4083 9.25774 22.4083 9.23411 22.4052 9.21079V9.15674C22.4069 9.13334 22.4069 9.10986 22.4052 9.08647C22.4073 9.0667 22.4073 9.04677 22.4052 9.02701V8.95673C22.4026 8.93519 22.4026 8.91341 22.4052 8.89187C22.4052 8.89187 22.4052 8.84863 22.4052 8.82701V8.69187L22.7026 8.70268Z" fill="white"/>
</g>
<defs>
<clipPath id="clip0_415_319">
<rect width="22.7027" height="20" fill="white"/>
</clipPath>
</defs>
</svg>
