<svg width="10" height="17" viewBox="0 0 10 17" fill="none" xmlns="http://www.w3.org/2000/svg">
<path d="M8.83803 0.193382C9.09566 0.45269 9.09566 0.870218 8.83803 1.12513L1.51085 8.5L8.83803 15.8749C9.09566 16.1342 9.09566 16.5517 8.83803 16.8066C8.7114 16.9341 8.5411 17 8.37517 17C8.20924 17 8.03894 16.9341 7.91231 16.8066L0.192128 9.03619C0.0654965 8.90874 2.98386e-06 8.73733 3.00562e-06 8.57032C3.00848e-06 8.54834 0.0131017 8.52197 0.0131017 8.5C0.00873581 8.47802 3.02108e-06 8.45165 3.02394e-06 8.42968C3.0457e-06 8.26267 0.0654967 8.09126 0.192128 7.9638L7.91231 0.193382C8.03894 0.0659255 8.20924 1.79885e-06 8.37517 1.82075e-06C8.5411 1.84265e-06 8.7114 0.0659256 8.83803 0.193382Z" fill="white"/>
</svg>
