<svg width="20" height="21" viewBox="0 0 20 21" fill="none" xmlns="http://www.w3.org/2000/svg">
<g clip-path="url(#clip0_195_9501)">
<path d="M17.005 7.4263C17.005 13.4058 12.2343 17.8905 10.5718 19.2957C10.4135 19.4284 10.2126 19.5013 10.0051 19.5013C9.79748 19.5013 9.59665 19.4284 9.4383 19.2957C7.77079 17.9005 3 13.3859 3 7.4263C3 5.58933 3.73774 3.82759 5.05097 2.52866C6.36419 1.22972 8.14535 0.5 10.0025 0.5C11.8597 0.5 13.6408 1.22972 14.954 2.52866C16.2673 3.82759 17.005 5.58933 17.005 7.4263Z" fill="#F82C47"/>
<path d="M10.0025 11.8561C12.4843 11.8561 14.4962 9.86614 14.4962 7.41135C14.4962 4.95655 12.4843 2.96655 10.0025 2.96655C7.52069 2.96655 5.50879 4.95655 5.50879 7.41135C5.50879 9.86614 7.52069 11.8561 10.0025 11.8561Z" fill="white"/>
</g>
<defs>
<clipPath id="clip0_195_9501">
<rect width="20" height="20" fill="white" transform="translate(0 0.5)"/>
</clipPath>
</defs>
</svg>
