<svg width="16" height="16" viewBox="0 0 16 16" fill="none" xmlns="http://www.w3.org/2000/svg">
<g clip-path="url(#clip0_269_1899)">
<path d="M8.57147 8.00004L15.8785 0.693046C16.0365 0.534991 16.0365 0.279672 15.8785 0.121617C15.7204 -0.0364375 15.4651 -0.0364375 15.307 0.121617L8.00004 7.42456L0.693046 0.117564C0.534991 -0.0404902 0.279672 -0.0404902 0.121617 0.117564C-0.0364375 0.275619 -0.0364375 0.530938 0.121617 0.688993L7.42861 7.99598L0.117564 15.307C-0.0404902 15.4651 -0.0404902 15.7204 0.117564 15.8785C0.275619 16.0365 0.530938 16.0365 0.688993 15.8785L7.99598 8.57147L15.303 15.8785C15.461 16.0365 15.7163 16.0365 15.8744 15.8785C16.0325 15.7204 16.0325 15.4651 15.8744 15.307L8.57147 8.00004Z" fill="white"/>
</g>
<defs>
<clipPath id="clip0_269_1899">
<rect width="16" height="16" fill="white"/>
</clipPath>
</defs>
</svg>
