<svg width="16" height="16" viewBox="0 0 16 16" fill="none" xmlns="http://www.w3.org/2000/svg">
<g clip-path="url(#clip0_262_335)">
<path d="M8 0C5.87897 0.00228929 3.84545 0.845882 2.34565 2.34568C0.845855 3.84547 0.00228929 5.87897 0 8C0.00228929 10.121 0.845855 12.1545 2.34565 13.6543C3.84545 15.1541 5.87897 15.9977 8 16C10.121 15.9977 12.1545 15.1541 13.6543 13.6543C15.1541 12.1545 15.9977 10.121 16 8C15.9977 5.87897 15.1541 3.84547 13.6543 2.34568C12.1545 0.845882 10.121 0.00228929 8 0ZM8.43243 15.1351V11.7405C8.43243 11.6258 8.38684 11.5159 8.30574 11.4348C8.22465 11.3537 8.11469 11.3081 8 11.3081C7.88531 11.3081 7.7753 11.3537 7.6942 11.4348C7.61311 11.5159 7.56757 11.6258 7.56757 11.7405V15.1351C5.83048 15.0286 4.19229 14.2906 2.96168 13.0599C1.73106 11.8293 0.992955 10.1912 0.886455 8.45406H4.28104C4.39573 8.45406 4.50574 8.4085 4.58683 8.3274C4.66793 8.2463 4.71347 8.13632 4.71347 8.02163C4.71347 7.90694 4.66793 7.79694 4.58683 7.71585C4.50574 7.63475 4.39573 7.5892 4.28104 7.5892H0.886455C0.993971 5.85287 1.73253 4.21574 2.96305 2.98602C4.19356 1.75631 5.83118 1.01883 7.56757 0.912439V4.30704C7.56757 4.42172 7.61311 4.53171 7.6942 4.61281C7.7753 4.6939 7.88531 4.73947 8 4.73947C8.11469 4.73947 8.22465 4.6939 8.30574 4.61281C8.38684 4.53171 8.43243 4.42172 8.43243 4.30704V0.912439C10.1688 1.01883 11.8064 1.75631 13.037 2.98602C14.2675 4.21574 15.006 5.85287 15.1135 7.5892H11.7146C11.5999 7.5892 11.4899 7.63475 11.4088 7.71585C11.3277 7.79694 11.2821 7.90694 11.2821 8.02163C11.2821 8.13632 11.3277 8.2463 11.4088 8.3274C11.4899 8.4085 11.5999 8.45406 11.7146 8.45406H15.1135C15.0019 10.1873 14.2616 11.8203 13.0315 13.0464C11.8013 14.2725 10.166 15.0076 8.43243 15.1135V15.1351Z" fill="white"/>
<path d="M8.00012 8.86486C8.47777 8.86486 8.86498 8.47765 8.86498 8C8.86498 7.52235 8.47777 7.13513 8.00012 7.13513C7.52247 7.13513 7.13525 7.52235 7.13525 8C7.13525 8.47765 7.52247 8.86486 8.00012 8.86486Z" fill="white"/>
</g>
<defs>
<clipPath id="clip0_262_335">
<rect width="16" height="16" fill="white"/>
</clipPath>
</defs>
</svg>
