<svg width="15" height="16" viewBox="0 0 15 16" fill="none" xmlns="http://www.w3.org/2000/svg">
<g clip-path="url(#clip0_19_10071)">
<path d="M14.3852 6.54593C14.3495 6.43893 14.2573 6.35868 14.1444 6.34382L9.5761 5.68102L7.53418 1.54071C7.48365 1.43966 7.37963 1.37427 7.26668 1.37427C7.15374 1.37427 7.04971 1.43966 6.99918 1.54071L4.95726 5.68102L0.388958 6.34382C0.276014 6.35868 0.183875 6.43893 0.148208 6.54593C0.112541 6.65293 0.142264 6.77182 0.222514 6.85207L3.52763 10.074L2.7489 14.6244C2.73107 14.7374 2.77565 14.8474 2.86779 14.9157C2.91832 14.9544 2.98074 14.9722 3.04315 14.9722C3.09071 14.9722 3.13826 14.9603 3.18285 14.9395L7.26668 12.7906L11.3535 14.9395C11.3981 14.9633 11.4456 14.9722 11.4932 14.9722C11.5556 14.9722 11.615 14.9544 11.6685 14.9157C11.7607 14.8503 11.8053 14.7374 11.7874 14.6244L11.0057 10.074L14.3108 6.85207C14.3911 6.77182 14.4208 6.65293 14.3852 6.54593Z" fill="#F82C47"/>
</g>
<defs>
<clipPath id="clip0_19_10071">
<rect width="14.2667" height="14.2667" fill="white" transform="translate(0.133301 0.96665)"/>
</clipPath>
</defs>
</svg>
