<svg width="193" height="48" viewBox="0 0 193 48" fill="none" xmlns="http://www.w3.org/2000/svg">
<rect width="193" height="48" rx="5" fill="#003E98"/>
<g clip-path="url(#clip0_216_410)">
<path d="M31.7006 9.4784L30.219 14.1056L29.9374 14.9856L29.5567 16.1728L28.5966 19.12H33.6302L32.3022 23.1136L29.1022 32.6848H20.6094V23.1136H16.3663V19.12H25.2398V28.0416C25.2386 28.102 25.2599 28.1606 25.2995 28.2061C25.3392 28.2517 25.3943 28.2809 25.4542 28.288C25.3949 28.2801 25.3405 28.2506 25.3015 28.2052C25.2626 28.1597 25.2417 28.1015 25.243 28.0416V15.6576V8C25.1694 8 25.0926 8 25.019 8C20.7756 8 16.7059 9.68571 13.7053 12.6863C10.7048 15.6869 9.01904 19.7565 9.01904 24C9.01904 28.2435 10.7048 32.3131 13.7053 35.3137C16.7059 38.3143 20.7756 40 25.019 40C29.2625 40 33.3322 38.3143 36.3328 35.3137C39.3333 32.3131 41.019 28.2435 41.019 24C41.0159 20.9421 40.1365 17.9491 38.485 15.3755C36.8336 12.8019 34.4792 10.7554 31.7006 9.4784Z" fill="#FF143B"/>
<path d="M27.3266 23.1136L26.2834 26.3456L25.7138 28.1184C25.7068 28.1378 25.6971 28.1561 25.685 28.1728C25.6607 28.215 25.6241 28.2487 25.58 28.2693C25.5359 28.2899 25.4865 28.2964 25.4386 28.288C25.3786 28.2809 25.3235 28.2517 25.2839 28.2061C25.2442 28.1606 25.223 28.1019 25.2242 28.0416V19.12H16.3506V23.1136H20.5938V32.6848H29.1026L32.3026 23.1136L33.6434 19.12H28.6098L27.3266 23.1136Z" fill="black"/>
<path d="M25.685 28.16C25.6971 28.1433 25.7068 28.125 25.7138 28.1056L26.2834 26.3328L27.3266 23.1008L28.6066 19.1072H25.2242V28.0416C25.2229 28.1014 25.2437 28.1597 25.2827 28.2052C25.3216 28.2506 25.376 28.2801 25.4354 28.288C25.4852 28.296 25.5363 28.2879 25.5812 28.2649C25.6261 28.2419 25.6624 28.2051 25.685 28.16Z" fill="#00D7EA"/>
<path d="M25.2273 15.6576V19.12H28.6097L29.5697 16.1728L29.9505 14.9856L30.2321 14.1056L31.7137 9.4784C29.6806 8.52885 27.4679 8.02479 25.2241 8V15.6576H25.2273Z" fill="white"/>
</g>
<path d="M50.292 24.412V26.992C52.248 26.992 53.64 26.92 55.248 26.632L55.344 27.436C53.664 27.724 52.224 27.796 50.172 27.796H49.32V20.596H54.54V21.4H50.292V23.62H54.144V24.412H50.292ZM56.484 19.624H57.468V30.376H56.484V19.624ZM60.2391 20.296H61.2111V21.952H64.3071V20.296H65.2791V25.288H60.2391V20.296ZM61.2111 22.72V24.496H64.3071V22.72H61.2111ZM67.5231 19.636H68.5071V26.152H67.5231V19.636ZM64.9311 26.368C67.1631 26.368 68.5431 27.1 68.5431 28.372C68.5431 29.644 67.1631 30.376 64.9311 30.376C62.6991 30.376 61.3191 29.644 61.3191 28.372C61.3191 27.1 62.6991 26.368 64.9311 26.368ZM64.9311 27.136C63.2991 27.136 62.2911 27.592 62.2911 28.372C62.2911 29.14 63.2991 29.608 64.9311 29.608C66.5631 29.608 67.5591 29.14 67.5591 28.372C67.5591 27.592 66.5631 27.136 64.9311 27.136Z" fill="white"/>
<path d="M158.957 22.0455C159.014 22.1065 159.014 22.2048 158.957 22.2647L157.335 24L158.957 25.7353C159.014 25.7963 159.014 25.8945 158.957 25.9545C158.929 25.9845 158.891 26 158.855 26C158.818 26 158.78 25.9845 158.752 25.9545L157.043 24.1262C157.015 24.0962 157 24.0558 157 24.0165C157 24.0114 157.003 24.0052 157.003 24C157.002 23.9948 157 23.9886 157 23.9835C157 23.9442 157.015 23.9038 157.043 23.8738L158.752 22.0455C158.78 22.0155 158.818 22 158.855 22C158.891 22 158.929 22.0155 158.957 22.0455Z" fill="white"/>
<path d="M165.256 22.28H166.672V20.424H167.336V24.696H166.672V22.816H165.256V22.28ZM165.656 23.912L165.328 24.424C164.528 24.136 163.912 23.544 163.6 22.808C163.296 23.64 162.632 24.312 161.792 24.632L161.448 24.112C162.52 23.72 163.256 22.752 163.256 21.72V21.472H161.656V20.944H165.488V21.472H163.912V21.72C163.912 22.64 164.616 23.544 165.656 23.912ZM164.968 27.08C166.048 27.08 166.704 26.776 166.704 26.256C166.704 25.736 166.048 25.424 164.968 25.424C163.888 25.424 163.232 25.736 163.232 26.256C163.232 26.776 163.888 27.08 164.968 27.08ZM164.968 24.92C166.44 24.92 167.36 25.408 167.36 26.256C167.36 27.104 166.44 27.592 164.968 27.592C163.496 27.592 162.576 27.104 162.576 26.256C162.576 25.408 163.496 24.92 164.968 24.92ZM169.447 22.56C169.447 23.224 169.887 23.704 170.487 23.704C171.079 23.704 171.519 23.224 171.519 22.56C171.519 21.896 171.079 21.416 170.487 21.416C169.887 21.416 169.447 21.896 169.447 22.56ZM172.119 22.56C172.119 23.56 171.423 24.248 170.487 24.248C169.543 24.248 168.855 23.56 168.855 22.56C168.855 21.552 169.543 20.864 170.487 20.864C171.423 20.864 172.119 21.552 172.119 22.56ZM170.015 25.624V25.096H174.839V27.6H174.183V25.624H170.015ZM174.207 20.416H174.839V24.688H174.207V22.8H173.295V24.648H172.679V20.552H173.295V22.264H174.207V20.416ZM178.247 21.792V22.44C178.247 23.688 178.783 24.936 179.775 25.496L179.375 25.976C178.679 25.56 178.183 24.792 177.935 23.88C177.687 24.864 177.167 25.704 176.455 26.152L176.055 25.664C177.055 25.064 177.615 23.76 177.615 22.44V21.792H176.255V21.256H179.527V21.792H178.247ZM180.167 22.992V20.576H180.791V27.216H180.167V23.528H178.983V22.992H180.167ZM181.607 20.408H182.239V27.584H181.607V20.408Z" fill="white"/>
<defs>
<clipPath id="clip0_216_410">
<rect width="32" height="32" fill="white" transform="translate(9 8)"/>
</clipPath>
</defs>
</svg>
