<svg width="38" height="38" viewBox="0 0 38 38" fill="none" xmlns="http://www.w3.org/2000/svg">
<circle cx="19" cy="19" r="19" fill="white"/>
<path d="M19.4531 18.5121C22.4864 18.5121 24.9454 16.0191 24.9454 12.9439C24.9454 9.86862 22.4864 7.37564 19.4531 7.37564C16.4198 7.37564 13.9608 9.86862 13.9608 12.9439C13.9608 16.0191 16.4198 18.5121 19.4531 18.5121Z" fill="#3374D2"/>
<path d="M21.0076 19.6562H17.9045C15.7831 19.6562 13.7486 20.5101 12.248 22.0304C10.7474 23.5506 9.90363 25.6127 9.9021 27.7634V28.096C9.90312 28.3954 9.98669 28.6885 10.1434 28.9422C10.3 29.1959 10.5236 29.4002 10.7887 29.5319L10.8866 29.5727C12.1301 30.1564 15.4923 30.6117 19.4301 30.6117C23.368 30.6117 26.7359 30.1798 27.9736 29.5727L28.0715 29.5319C28.3352 29.3988 28.5571 29.1941 28.7127 28.9406C28.8682 28.687 28.9512 28.3946 28.9523 28.096V27.7634C28.9524 25.6223 28.117 23.5681 26.6285 22.0492C25.1401 20.5303 23.1194 19.67 21.0076 19.6562Z" fill="#3374D2"/>
</svg>
