<svg width="193" height="48" viewBox="0 0 193 48" fill="none" xmlns="http://www.w3.org/2000/svg">
<rect width="193" height="48" rx="5" fill="#003E98"/>
<g clip-path="url(#clip0_216_412)">
<path d="M41 24C41 27.1645 40.0616 30.2579 38.3035 32.8891C36.5454 35.5203 34.0466 37.5711 31.1229 38.7821C28.1993 39.9931 24.9823 40.3099 21.8786 39.6926C18.7749 39.0752 15.9239 37.5513 13.6863 35.3137C11.4487 33.0761 9.92481 30.2251 9.30744 27.1214C8.69008 24.0177 9.00693 20.8007 10.2179 17.8771C11.4289 14.9534 13.4797 12.4546 16.1109 10.6965C18.7421 8.93838 21.8355 8 25 8C25.0736 8 25.1504 8 25.224 8C27.463 8.0246 29.6711 8.52643 31.7008 9.472C34.4767 10.7522 36.8278 12.8009 38.4758 15.3756C40.1238 17.9502 40.9998 20.9431 41 24Z" fill="black"/>
<path d="M20.7376 31.264L23.6912 31.0688L24.8464 23.7568H25.1536L26.2832 30.896L29.4128 30.688L31.9248 16.736H28.9232L27.7744 27.3792L27.4256 27.4048L26.2096 19.7376H23.7904L22.5232 27.728L22.1744 27.7536L21.0928 19.7376H18.0752L20.7376 31.264Z" fill="#FF0558"/>
</g>
<path d="M50.172 22.084C50.172 22.852 50.868 23.368 51.9 23.368C52.908 23.368 53.616 22.852 53.616 22.084C53.616 21.304 52.908 20.776 51.9 20.776C50.868 20.776 50.172 21.304 50.172 22.084ZM55.332 24.784L55.392 25.48C53.148 25.888 50.604 25.924 48.756 25.924L48.624 25.144C49.452 25.144 50.412 25.132 51.42 25.096V24.1C50.112 23.944 49.248 23.176 49.248 22.084C49.248 20.848 50.328 20.044 51.9 20.044C53.46 20.044 54.54 20.848 54.54 22.084C54.54 23.164 53.688 23.932 52.404 24.088V25.06C53.388 25 54.408 24.928 55.332 24.784ZM54.132 26.56V26.932C54.132 28.324 55.764 29.32 57.72 29.584L57.36 30.352C55.728 30.088 54.276 29.38 53.64 28.252C52.992 29.38 51.54 30.088 49.92 30.352L49.56 29.584C51.516 29.32 53.136 28.324 53.136 26.932V26.56H54.132ZM56.976 22.888H58.548V23.704H56.976V27.28H55.992V19.624H56.976V22.888ZM63.2751 22.276V23.116C63.2751 24.844 64.3431 26.608 65.8911 27.352L65.3391 28.12C64.1631 27.544 63.2511 26.368 62.7951 24.988C62.3391 26.464 61.3551 27.712 60.1311 28.312L59.5791 27.568C61.1511 26.8 62.3031 24.976 62.3031 23.116V22.276H59.8671V21.484H62.2911V19.816H63.2751V21.484H65.6631V22.276H63.2751ZM69.7311 24.052V24.868H67.9551V30.388H66.9711V19.624H67.9551V24.052H69.7311Z" fill="white"/>
<path d="M158.957 22.0455C159.014 22.1065 159.014 22.2048 158.957 22.2647L157.335 24L158.957 25.7353C159.014 25.7963 159.014 25.8945 158.957 25.9545C158.929 25.9845 158.891 26 158.855 26C158.818 26 158.78 25.9845 158.752 25.9545L157.043 24.1262C157.015 24.0962 157 24.0558 157 24.0165C157 24.0114 157.003 24.0052 157.003 24C157.002 23.9948 157 23.9886 157 23.9835C157 23.9442 157.015 23.9038 157.043 23.8738L158.752 22.0455C158.78 22.0155 158.818 22 158.855 22C158.891 22 158.929 22.0155 158.957 22.0455Z" fill="white"/>
<path d="M165.256 22.28H166.672V20.424H167.336V24.696H166.672V22.816H165.256V22.28ZM165.656 23.912L165.328 24.424C164.528 24.136 163.912 23.544 163.6 22.808C163.296 23.64 162.632 24.312 161.792 24.632L161.448 24.112C162.52 23.72 163.256 22.752 163.256 21.72V21.472H161.656V20.944H165.488V21.472H163.912V21.72C163.912 22.64 164.616 23.544 165.656 23.912ZM164.968 27.08C166.048 27.08 166.704 26.776 166.704 26.256C166.704 25.736 166.048 25.424 164.968 25.424C163.888 25.424 163.232 25.736 163.232 26.256C163.232 26.776 163.888 27.08 164.968 27.08ZM164.968 24.92C166.44 24.92 167.36 25.408 167.36 26.256C167.36 27.104 166.44 27.592 164.968 27.592C163.496 27.592 162.576 27.104 162.576 26.256C162.576 25.408 163.496 24.92 164.968 24.92ZM169.447 22.56C169.447 23.224 169.887 23.704 170.487 23.704C171.079 23.704 171.519 23.224 171.519 22.56C171.519 21.896 171.079 21.416 170.487 21.416C169.887 21.416 169.447 21.896 169.447 22.56ZM172.119 22.56C172.119 23.56 171.423 24.248 170.487 24.248C169.543 24.248 168.855 23.56 168.855 22.56C168.855 21.552 169.543 20.864 170.487 20.864C171.423 20.864 172.119 21.552 172.119 22.56ZM170.015 25.624V25.096H174.839V27.6H174.183V25.624H170.015ZM174.207 20.416H174.839V24.688H174.207V22.8H173.295V24.648H172.679V20.552H173.295V22.264H174.207V20.416ZM178.247 21.792V22.44C178.247 23.688 178.783 24.936 179.775 25.496L179.375 25.976C178.679 25.56 178.183 24.792 177.935 23.88C177.687 24.864 177.167 25.704 176.455 26.152L176.055 25.664C177.055 25.064 177.615 23.76 177.615 22.44V21.792H176.255V21.256H179.527V21.792H178.247ZM180.167 22.992V20.576H180.791V27.216H180.167V23.528H178.983V22.992H180.167ZM181.607 20.408H182.239V27.584H181.607V20.408Z" fill="white"/>
<defs>
<clipPath id="clip0_216_412">
<rect width="32" height="32" fill="white" transform="translate(9 8)"/>
</clipPath>
</defs>
</svg>
